<svg xmlns="http://www.w3.org/2000/svg" xmlns:xlink="http://www.w3.org/1999/xlink" width="190" zoomAndPan="magnify" viewBox="0 0 142.5 37.5" height="50" preserveAspectRatio="xMidYMid meet" version="1.0"><defs><g/><clipPath id="cb6533437f"><path d="M 1.238281 3.261719 L 140.871094 3.261719 L 140.871094 32.226562 L 1.238281 32.226562 Z M 1.238281 3.261719 " clip-rule="nonzero"/></clipPath></defs><g fill="#3b82f6" fill-opacity="1"><g transform="translate(2.684549, 24.127136)"><g><path d="M 10.125 -3.1875 L 4.53125 -3.1875 L 3.46875 0 L 0.078125 0 L 5.84375 -15.484375 L 8.796875 -15.484375 L 14.59375 0 L 11.203125 0 Z M 5.390625 -5.78125 L 9.265625 -5.78125 L 7.3125 -11.578125 Z M 5.390625 -5.78125 "/></g></g></g><g fill="#3b82f6" fill-opacity="1"><g transform="translate(17.341163, 24.127136)"><g><path d="M 11.546875 -5.640625 C 11.546875 -3.867188 11.140625 -2.445312 10.328125 -1.375 C 9.523438 -0.3125 8.441406 0.21875 7.078125 0.21875 C 5.910156 0.21875 4.96875 -0.1875 4.25 -1 L 4.25 4.421875 L 1.1875 4.421875 L 1.1875 -11.5 L 4.03125 -11.5 L 4.140625 -10.375 C 4.878906 -11.269531 5.847656 -11.71875 7.046875 -11.71875 C 8.460938 -11.71875 9.566406 -11.191406 10.359375 -10.140625 C 11.148438 -9.097656 11.546875 -7.65625 11.546875 -5.8125 Z M 8.46875 -5.875 C 8.46875 -6.945312 8.273438 -7.769531 7.890625 -8.34375 C 7.515625 -8.925781 6.96875 -9.21875 6.25 -9.21875 C 5.28125 -9.21875 4.613281 -8.847656 4.25 -8.109375 L 4.25 -3.40625 C 4.625 -2.644531 5.296875 -2.265625 6.265625 -2.265625 C 7.734375 -2.265625 8.46875 -3.46875 8.46875 -5.875 Z M 8.46875 -5.875 "/></g></g></g><g fill="#3b82f6" fill-opacity="1"><g transform="translate(29.604649, 24.127136)"><g><path d="M 11.546875 -5.640625 C 11.546875 -3.867188 11.140625 -2.445312 10.328125 -1.375 C 9.523438 -0.3125 8.441406 0.21875 7.078125 0.21875 C 5.910156 0.21875 4.96875 -0.1875 4.25 -1 L 4.25 4.421875 L 1.1875 4.421875 L 1.1875 -11.5 L 4.03125 -11.5 L 4.140625 -10.375 C 4.878906 -11.269531 5.847656 -11.71875 7.046875 -11.71875 C 8.460938 -11.71875 9.566406 -11.191406 10.359375 -10.140625 C 11.148438 -9.097656 11.546875 -7.65625 11.546875 -5.8125 Z M 8.46875 -5.875 C 8.46875 -6.945312 8.273438 -7.769531 7.890625 -8.34375 C 7.515625 -8.925781 6.96875 -9.21875 6.25 -9.21875 C 5.28125 -9.21875 4.613281 -8.847656 4.25 -8.109375 L 4.25 -3.40625 C 4.625 -2.644531 5.296875 -2.265625 6.265625 -2.265625 C 7.734375 -2.265625 8.46875 -3.46875 8.46875 -5.875 Z M 8.46875 -5.875 "/></g></g></g><g fill="#3b82f6" fill-opacity="1"><g transform="translate(41.868135, 24.127136)"><g><path d="M 4.421875 0 L 1.34375 0 L 1.34375 -16.34375 L 4.421875 -16.34375 Z M 4.421875 0 "/></g></g></g><g fill="#3b82f6" fill-opacity="1"><g transform="translate(47.64357, 24.127136)"><g><path d="M 5.484375 -4.34375 L 7.609375 -11.5 L 10.90625 -11.5 L 6.28125 1.78125 L 6.015625 2.390625 C 5.328125 3.890625 4.191406 4.640625 2.609375 4.640625 C 2.171875 4.640625 1.71875 4.578125 1.25 4.453125 L 1.25 2.109375 L 1.71875 2.125 C 2.300781 2.125 2.734375 2.035156 3.015625 1.859375 C 3.304688 1.679688 3.535156 1.390625 3.703125 0.984375 L 4.0625 0.03125 L 0.03125 -11.5 L 3.34375 -11.5 Z M 5.484375 -4.34375 "/></g></g></g><g fill="#3b82f6" fill-opacity="1"><g transform="translate(58.577532, 24.127136)"><g/></g></g><g fill="#3b82f6" fill-opacity="1"><g transform="translate(64.001968, 24.127136)"><g><path d="M 0.75 -4.171875 C 0.75 -4.890625 0.945312 -5.550781 1.34375 -6.15625 C 1.75 -6.769531 2.488281 -7.445312 3.5625 -8.1875 C 3.101562 -8.800781 2.738281 -9.378906 2.46875 -9.921875 C 2.207031 -10.460938 2.078125 -11.03125 2.078125 -11.625 C 2.078125 -12.832031 2.457031 -13.8125 3.21875 -14.5625 C 3.988281 -15.320312 5.019531 -15.703125 6.3125 -15.703125 C 7.46875 -15.703125 8.414062 -15.359375 9.15625 -14.671875 C 9.894531 -13.984375 10.265625 -13.125 10.265625 -12.09375 C 10.265625 -10.851562 9.640625 -9.765625 8.390625 -8.828125 L 7.203125 -7.96875 L 9.875 -4.859375 C 10.289062 -5.679688 10.5 -6.585938 10.5 -7.578125 L 13.109375 -7.578125 C 13.109375 -5.566406 12.644531 -3.9375 11.71875 -2.6875 L 14.03125 0 L 10.546875 0 L 9.75 -0.921875 C 8.613281 -0.160156 7.300781 0.21875 5.8125 0.21875 C 4.28125 0.21875 3.050781 -0.179688 2.125 -0.984375 C 1.207031 -1.796875 0.75 -2.859375 0.75 -4.171875 Z M 5.96875 -2.25 C 6.707031 -2.25 7.40625 -2.457031 8.0625 -2.875 L 5.015625 -6.40625 L 4.78125 -6.25 C 4.15625 -5.707031 3.84375 -5.070312 3.84375 -4.34375 C 3.84375 -3.71875 4.035156 -3.210938 4.421875 -2.828125 C 4.816406 -2.441406 5.332031 -2.25 5.96875 -2.25 Z M 4.84375 -11.671875 C 4.84375 -11.140625 5.15625 -10.46875 5.78125 -9.65625 L 6.59375 -10.203125 C 7.007812 -10.472656 7.296875 -10.734375 7.453125 -10.984375 C 7.617188 -11.242188 7.703125 -11.550781 7.703125 -11.90625 C 7.703125 -12.257812 7.566406 -12.566406 7.296875 -12.828125 C 7.035156 -13.085938 6.703125 -13.21875 6.296875 -13.21875 C 5.859375 -13.21875 5.503906 -13.078125 5.234375 -12.796875 C 4.972656 -12.515625 4.84375 -12.140625 4.84375 -11.671875 Z M 4.84375 -11.671875 "/></g></g></g><g fill="#3b82f6" fill-opacity="1"><g transform="translate(78.296953, 24.127136)"><g/></g></g><g fill="#3b82f6" fill-opacity="1"><g transform="translate(83.721389, 24.127136)"><g><path d="M 13.03125 -12.90625 L 8.296875 -12.90625 L 8.296875 0 L 5.109375 0 L 5.109375 -12.90625 L 0.421875 -12.90625 L 0.421875 -15.484375 L 13.03125 -15.484375 Z M 13.03125 -12.90625 "/></g></g></g><g fill="#3b82f6" fill-opacity="1"><g transform="translate(97.197397, 24.127136)"><g><path d="M 7.640625 -8.625 C 7.222656 -8.675781 6.859375 -8.703125 6.546875 -8.703125 C 5.378906 -8.703125 4.613281 -8.3125 4.25 -7.53125 L 4.25 0 L 1.1875 0 L 1.1875 -11.5 L 4.078125 -11.5 L 4.171875 -10.140625 C 4.785156 -11.191406 5.640625 -11.71875 6.734375 -11.71875 C 7.078125 -11.71875 7.394531 -11.671875 7.6875 -11.578125 Z M 7.640625 -8.625 "/></g></g></g><g fill="#3b82f6" fill-opacity="1"><g transform="translate(105.142606, 24.127136)"><g><path d="M 7.84375 0 C 7.707031 -0.28125 7.609375 -0.625 7.546875 -1.03125 C 6.796875 -0.195312 5.828125 0.21875 4.640625 0.21875 C 3.515625 0.21875 2.578125 -0.109375 1.828125 -0.765625 C 1.085938 -1.421875 0.71875 -2.242188 0.71875 -3.234375 C 0.71875 -4.453125 1.171875 -5.382812 2.078125 -6.03125 C 2.984375 -6.6875 4.289062 -7.019531 6 -7.03125 L 7.40625 -7.03125 L 7.40625 -7.6875 C 7.40625 -8.21875 7.269531 -8.640625 7 -8.953125 C 6.726562 -9.273438 6.300781 -9.4375 5.71875 -9.4375 C 5.195312 -9.4375 4.785156 -9.3125 4.484375 -9.0625 C 4.191406 -8.820312 4.046875 -8.484375 4.046875 -8.046875 L 0.984375 -8.046875 C 0.984375 -8.710938 1.1875 -9.328125 1.59375 -9.890625 C 2.007812 -10.460938 2.59375 -10.910156 3.34375 -11.234375 C 4.09375 -11.554688 4.9375 -11.71875 5.875 -11.71875 C 7.289062 -11.71875 8.414062 -11.359375 9.25 -10.640625 C 10.082031 -9.929688 10.5 -8.929688 10.5 -7.640625 L 10.5 -2.65625 C 10.5 -1.5625 10.648438 -0.738281 10.953125 -0.1875 L 10.953125 0 Z M 5.3125 -2.140625 C 5.757812 -2.140625 6.175781 -2.238281 6.5625 -2.4375 C 6.945312 -2.644531 7.226562 -2.914062 7.40625 -3.25 L 7.40625 -5.234375 L 6.265625 -5.234375 C 4.722656 -5.234375 3.90625 -4.703125 3.8125 -3.640625 L 3.796875 -3.453125 C 3.796875 -3.066406 3.929688 -2.75 4.203125 -2.5 C 4.472656 -2.257812 4.84375 -2.140625 5.3125 -2.140625 Z M 5.3125 -2.140625 "/></g></g></g><g fill="#3b82f6" fill-opacity="1"><g transform="translate(116.821098, 24.127136)"><g><path d="M 5.96875 -2.265625 C 6.53125 -2.265625 6.988281 -2.421875 7.34375 -2.734375 C 7.695312 -3.046875 7.882812 -3.460938 7.90625 -3.984375 L 10.78125 -3.984375 C 10.78125 -3.203125 10.566406 -2.484375 10.140625 -1.828125 C 9.722656 -1.179688 9.148438 -0.675781 8.421875 -0.3125 C 7.703125 0.0390625 6.898438 0.21875 6.015625 0.21875 C 4.367188 0.21875 3.070312 -0.300781 2.125 -1.34375 C 1.175781 -2.394531 0.703125 -3.84375 0.703125 -5.6875 L 0.703125 -5.890625 C 0.703125 -7.660156 1.171875 -9.070312 2.109375 -10.125 C 3.054688 -11.1875 4.351562 -11.71875 6 -11.71875 C 7.4375 -11.71875 8.585938 -11.304688 9.453125 -10.484375 C 10.328125 -9.671875 10.769531 -8.582031 10.78125 -7.21875 L 7.90625 -7.21875 C 7.882812 -7.8125 7.695312 -8.296875 7.34375 -8.671875 C 6.988281 -9.046875 6.519531 -9.234375 5.9375 -9.234375 C 5.226562 -9.234375 4.691406 -8.972656 4.328125 -8.453125 C 3.960938 -7.929688 3.78125 -7.082031 3.78125 -5.90625 L 3.78125 -5.59375 C 3.78125 -4.40625 3.957031 -3.550781 4.3125 -3.03125 C 4.675781 -2.519531 5.226562 -2.265625 5.96875 -2.265625 Z M 5.96875 -2.265625 "/></g></g></g><g fill="#3b82f6" fill-opacity="1"><g transform="translate(128.180506, 24.127136)"><g><path d="M 5.359375 -4.609375 L 4.25 -3.515625 L 4.25 0 L 1.1875 0 L 1.1875 -16.34375 L 4.25 -16.34375 L 4.25 -7.28125 L 4.84375 -8.046875 L 7.796875 -11.5 L 11.484375 -11.5 L 7.328125 -6.703125 L 11.84375 0 L 8.3125 0 Z M 5.359375 -4.609375 "/></g></g></g><g clip-path="url(#cb6533437f)"><path fill="#3b82f6" d="M 140.816406 32.226562 L 1.292969 32.226562 L 1.292969 3.261719 L 140.816406 3.261719 Z M 2.402344 31.113281 L 139.707031 31.113281 L 139.707031 4.375 L 2.402344 4.375 Z M 2.402344 31.113281 " fill-opacity="1" fill-rule="nonzero"/></g></svg>